<?xml version="1.0" encoding="iso-8859-1"?>
<!-- Uploaded to: SVG Repo, www.svgrepo.com, Generator: SVG Repo Mixer Tools -->
<svg height="800px" width="800px" version="1.1" id="Layer_1" xmlns="http://www.w3.org/2000/svg" xmlns:xlink="http://www.w3.org/1999/xlink" 
	 viewBox="0 0 512 512" xml:space="preserve">
<path style="fill:#FFC44F;" d="M436.564,117.996l-7.981-106.575c-0.219-2.918-2.014-5.484-4.679-6.689
	c-2.668-1.206-5.78-0.858-8.114,0.905l-85.283,64.41c-1.067,0.806-1.916,1.868-2.467,3.087l-70.971,156.981l105.63,53.634
	l73.177-161.86C436.427,120.668,436.663,119.331,436.564,117.996z"/>
<path style="fill:#FF8C78;" d="M431.884,111.307l-93.265-42.165c-1.932-0.873-4.133-0.942-6.117-0.195
	c-1.984,0.748-3.59,2.255-4.464,4.187l-71.052,157.161l105.852,53.142l73.036-161.549
	C437.695,117.864,435.908,113.127,431.884,111.307z"/>
<path style="fill:#DF7A6E;" d="M405.798,188.416h-104.45l51.234-112.962l-13.963-6.313c-1.932-0.873-4.133-0.942-6.117-0.195
	c-1.984,0.748-3.59,2.255-4.464,4.187L256.884,230.52l105.87,53.102L405.798,188.416z"/>
<path style="fill:#FFC44F;" d="M428.256,62.864l-50.872-23c-2.668-1.206-5.779-0.858-8.114,0.905l-38.765,29.277l106.058,47.949
	l-3.628-48.444C432.717,66.635,430.921,64.069,428.256,62.864z"/>
<path style="fill:#68727E;" d="M423.903,4.732c-2.668-1.206-5.78-0.858-8.114,0.905L369.271,40.77l63.665,28.782l-4.353-58.131
	C428.364,8.503,426.568,5.938,423.903,4.732z"/>
<path style="fill:#509FE8;" d="M405.476,103.942l-43.878-19.837c-1.059,0.8-1.914,1.854-2.47,3.086L287.52,245.577l44.726,22.71
	l72.542-160.454C405.359,106.569,405.574,105.234,405.476,103.942z"/>
<polygon style="fill:#4D8CCF;" points="368.355,188.416 313.362,188.416 287.503,245.615 332.323,268.117 "/>
<path style="fill:#FF8C78;" d="M174.326,30.262C167.788,7.98,144.341-4.829,122.059,1.708L105.69,6.51
	C94.896,9.677,85.982,16.859,80.588,26.73c-5.393,9.872-6.619,21.253-3.452,32.047l63.474,216.342l96.698-30.194L174.326,30.262z"/>
<path style="fill:#509FE8;" d="M122.058,1.707L105.69,6.51C94.896,9.677,85.982,16.857,80.588,26.73
	c-5.393,9.872-6.619,21.253-3.452,32.047l36.02,122.766l97.19-28.515l-36.02-122.766C167.788,7.979,144.341-4.829,122.058,1.707z"/>
<path style="fill:#DF7A6E;" d="M220.727,188.416h-74.384L93.779,12.144c-5.429,3.702-9.95,8.653-13.191,14.586
	c-5.393,9.872-6.619,21.253-3.452,32.047l63.518,216.496l96.887-29.549L220.727,188.416z"/>
<g>
	<path style="fill:#4D8CCF;" d="M93.779,12.143c-5.429,3.702-9.95,8.653-13.191,14.587c-5.393,9.872-6.619,21.253-3.452,32.047
		l36.02,122.766l28.634-8.401L93.779,12.143z"/>
	<path style="fill:#4D8CCF;" d="M249.468,170.826c-3.455,0-6.641-2.257-7.667-5.739L206.964,46.798l-33.257,9.758
		c-4.237,1.24-8.681-1.185-9.924-5.422s1.185-8.681,5.422-9.924l40.922-12.006c4.234-1.241,8.674,1.18,9.922,5.414l37.094,125.953
		c1.247,4.236-1.175,8.682-5.412,9.929C250.978,170.72,250.216,170.826,249.468,170.826z"/>
</g>
<path style="fill:#FFC44F;" d="M113.535,247.055v222.831c0,23.221,18.893,42.114,42.114,42.114h204.706
	c23.221,0,42.114-18.893,42.114-42.114v-43.713l-7.996-51.176l7.996-49.044v-78.897L113.535,247.055L113.535,247.055z"/>
<path style="fill:#F7B14D;" d="M402.468,282.772v-35.717H113.535v222.831c0,23.221,18.893,42.114,42.114,42.114h61.718
	c-48.585-49.588-78.777-118.912-78.777-195.643c0-11.372,0.674-22.577,1.962-33.585H402.468z"/>
<path style="fill:#FFC44F;" d="M420.06,197.478H95.943c-4.416,0-7.996,3.58-7.996,7.996v51.176c0,4.416,3.58,7.996,7.996,7.996
	H420.06c4.416,0,7.996-3.58,7.996-7.996v-51.176C428.057,201.059,424.476,197.478,420.06,197.478z"/>
<path style="fill:#F6F6F7;" d="M402.468,325.419H215.355c-4.416,0-7.996,3.58-7.996,7.996v85.294c0,4.416,3.58,7.996,7.996,7.996
	h187.114V325.419z"/>
</svg>